<svg xmlns="http://www.w3.org/2000/svg" xmlns:xlink="http://www.w3.org/1999/xlink" x="0px" y="0px" viewBox="0 0 200 200" style="enable-background:new 0 0 200 200;" xml:space="preserve"><path d="M4.2,4.2v191.5h191.5V4.2H4.2z M186.5,13.5V59C177,39.1,160.9,23,141,13.5H186.5z M104.6,13.6c44,2.3,79.4,37.7,81.7,81.7 h-81.7V13.6z M13.5,13.6c44,2.3,79.4,37.7,81.7,81.7H13.5V13.6z M13.5,186.5v-81.7c44,2.3,79.4,37.7,81.7,81.7H13.5z M95.4,150.1 c-9.5-19.9-25.6-36-45.4-45.4h45.4V150.1z M95.4,59c-9.5-19.9-25.6-36-45.4-45.4h45.4V59z M104.6,186.5v-81.7 c44,2.3,79.4,37.7,81.7,81.7H104.6z M186.5,150.1c-9.5-19.9-25.6-36-45.4-45.4h45.4V150.1z"></path></svg>