<svg xmlns="http://www.w3.org/2000/svg" xmlns:xlink="http://www.w3.org/1999/xlink" x="0px" y="0px" viewBox="0 0 200 200" style="enable-background:new 0 0 200 200;" xml:space="preserve"><polygon points="197.8,95.3 120.7,95.3 190.2,61.8 186.1,53.3 116.6,86.8 164.7,26.5 157.3,20.6 109.2,80.9 126.4,5.7 117.2,3.6  100,78.7 82.8,3.6 73.6,5.7 90.8,80.9 42.7,20.6 35.3,26.5 83.4,86.8 13.9,53.3 9.8,61.8 79.3,95.3 2.2,95.3 2.2,104.7 79.3,104.7  9.8,138.2 13.9,146.7 83.4,113.2 35.3,173.5 42.7,179.4 90.8,119.1 73.6,194.3 82.8,196.4 100,121.3 117.2,196.4 126.4,194.3  109.2,119.1 157.3,179.4 164.7,173.5 116.6,113.2 186.1,146.7 190.2,138.2 120.7,104.7 197.8,104.7 "></polygon></svg>