<svg xmlns="http://www.w3.org/2000/svg" xmlns:xlink="http://www.w3.org/1999/xlink" x="0px" y="0px" viewBox="0 0 200 200" style="enable-background:new 0 0 200 200;" xml:space="preserve"><path d="M168.1,100c17.6-8.1,29.8-26,29.8-46.6c0-28.3-23-51.3-51.3-51.3c-20.6,0-38.5,12.2-46.6,29.8C91.9,14.3,74,2.1,53.4,2.1 c-28.3,0-51.3,23-51.3,51.3C2.1,74,14.3,91.9,31.9,100c-17.6,8.2-29.8,26-29.8,46.6c0,28.3,23,51.3,51.3,51.3 c20.6,0,38.5-12.2,46.6-29.8c8.1,17.6,26,29.8,46.6,29.8c28.3,0,51.3-23,51.3-51.3C197.9,126,185.7,108.1,168.1,100L168.1,100z  M146.6,11.6c23.1,0,41.9,18.8,41.9,41.9s-18.8,41.9-41.9,41.9s-41.9-18.8-41.9-41.9S123.5,11.6,146.6,11.6z M125.1,100 c-11.1,5.1-20,14.1-25.1,25.1c-5.1-11.1-14.1-20-25.1-25.1c11.1-5.1,20-14.1,25.1-25.1C105.1,86,114.1,94.9,125.1,100z M11.5,53.4 c0-23.1,18.8-41.9,41.9-41.9s41.9,18.8,41.9,41.9S76.5,95.3,53.4,95.3S11.5,76.5,11.5,53.4z M53.4,188.5 c-23.1,0-41.9-18.8-41.9-41.9s18.8-41.9,41.9-41.9s41.9,18.8,41.9,41.9S76.5,188.5,53.4,188.5z M146.6,188.5 c-23.1,0-41.9-18.8-41.9-41.9s18.8-41.9,41.9-41.9s41.9,18.8,41.9,41.9S169.7,188.5,146.6,188.5z"></path></svg>