<svg xmlns="http://www.w3.org/2000/svg" viewBox="0 0 292 50"><path d="M205.35,15a31.63,31.63,0,0,0-12,2.45l-2.84,6.1A25.66,25.66,0,0,1,200.81,21c3.77,0,4.1,2,3.23,3.84l-.23.49c-9.11,0-17.77,3.41-21.31,11-2.27,4.87-.59,8.87,4.92,8.87a15.48,15.48,0,0,0,9.47-3.45h.17l-.83,2.88h8A51.07,51.07,0,0,1,207,37.8l4.87-10.44c3-6.42,3.29-12.36-6.48-12.36M199.7,34.73a8.08,8.08,0,0,1-.85,1.46,7.74,7.74,0,0,1-5.63,3c-1.76,0-2.88-1.11-1.69-3.68,1.74-3.71,6-4.75,10-4.76l-1.86,4Z"></path><path d="M113.32,15.57,105,33.46a8.9,8.9,0,0,1-1.41,2.15,7.25,7.25,0,0,1-5.07,2.67c-2.87,0-2.86-2.52-1-6.58l7.53-16.13H96.15L88.06,32.91c-3.94,8.47-2.18,12.33,3.85,12.33A16.6,16.6,0,0,0,102.32,41h.16l-1.26,3.65h7.94a46,46,0,0,1,2.74-6.87c1.23-2.54,10.35-22.22,10.35-22.22Z"></path><path d="M149.93,39c-3.49,0-3.26-4-.94-8.92,1.95-4.18,5.4-8.87,9.25-8.87,3.63,0,2.73,4.67.78,8.85-2.25,4.82-5.79,8.94-9,8.94Zm-3,6.22c6.56,0,16-4.05,21.23-15.33C172.38,21,169.78,15,161.39,15s-16.88,5.45-21.47,15.29c-4.4,9.41-1.19,15,7,15Z"></path><path d="M244.41,39c-3.49,0-3.25-4-.93-8.92,2-4.18,5.39-8.87,9.24-8.87,3.64,0,2.74,4.67.78,8.85-2.25,4.82-5.79,8.94-9,8.94Zm-3,6.22c6.58,0,16-4.05,21.25-15.33C266.87,21,264.27,15,255.87,15S239,20.44,234.4,30.28c-4.39,9.41-1.18,15,7,15Z"></path><path d="M291.17,15.15a7.59,7.59,0,0,0-1.83-.16c-2.64,0-6.61,1.73-9.83,5.48h-.23l1.9-4.9H273.5c-1.06,2.6-2.34,5.56-4.05,9.23l-9.26,19.86h4.74a6.45,6.45,0,0,0,6.08-4l5-10.69a14.72,14.72,0,0,1,1.37-2.4,10.06,10.06,0,0,1,7.87-4.4,9.61,9.61,0,0,1,2.14.19l3.8-8.17Z"></path><path d="M225.68,38.21c-2.3,0-2.86-1.28-1.25-4.73l5.47-11.73h5.36l2.88-6.18h-5.35l3.6-7.74h-4.61a6.47,6.47,0,0,0-6.08,4.05L224,15.57h-3.85l-2.87,6.18h3.84l-5.93,12.7c-2,4.32-2.3,6.86-1.34,8.49.82,1.43,2.8,2.23,5.56,2.23a24.29,24.29,0,0,0,6-.66L228.4,38a11.07,11.07,0,0,1-2.73.26"></path><path d="M187.08,7.84A6.45,6.45,0,0,0,181,11.89L165.71,44.67h4.74a6.47,6.47,0,0,0,6.08-4.05L191.82,7.84Z"></path><path d="M145.57,15.15a7.5,7.5,0,0,0-1.82-.16c-2.64,0-6.62,1.73-9.84,5.48h-.22l1.9-4.9h-7.68c-1.07,2.6-2.34,5.56-4.06,9.23l-9.26,19.86h4.74a6.44,6.44,0,0,0,6.07-4l5-10.69a15.47,15.47,0,0,1,1.38-2.4,10,10,0,0,1,7.86-4.4,9.61,9.61,0,0,1,2.14.19l3.8-8.17Z"></path><path d="M91.85,17.39c2.36-5.73,2.37-12.23-10.32-12.23H70.19L51.77,44.66h4.66a6.46,6.46,0,0,0,6.08-4l4.91-10.54a21.87,21.87,0,0,0,2.48.13c4.62,0,9.79-.47,14.06-3.26a20.55,20.55,0,0,0,7.87-9.55m-19,6.13a10.76,10.76,0,0,1-2.3-.17l5.62-12a22.52,22.52,0,0,1,3.23-.07c4.35,0,5.41,2.18,3.68,6.05s-5.59,6.21-10.23,6.21"></path><path d="M39.21,5.16a6.48,6.48,0,0,0-6.08,4.05L16.6,44.66h6.94L42,5.16Z"></path><path d="M61.9,5.16H46.83L28.41,44.66H39.29a6.44,6.44,0,0,0,6.07-4C46.59,38,61.9,5.16,61.9,5.16Z"></path><path d="M20.11,26.71H3a1.79,1.79,0,0,0-1.78,1.8,1.74,1.74,0,0,0,.52,1.26L13.28,41.35,20.1,26.71Z"></path></svg>