<svg xmlns="http://www.w3.org/2000/svg" xmlns:xlink="http://www.w3.org/1999/xlink" x="0px" y="0px" viewBox="0 0 210 63" style="enable-background:new 0 0 210 63;" xml:space="preserve">	<g>		<path d="M206.5,15.3h-5.6v32.3h5.6V15.3z"></path>		<path d="M139.3,15.3h-4c-9,0-16.4,7.3-16.4,16.2s7.3,16.2,16.4,16.2h4c9,0,16.4-7.3,16.4-16.2S148.4,15.3,139.3,15.3z M139.3,42.1  h-4c-5.9,0-10.7-4.8-10.7-10.6c0-5.8,4.8-10.6,10.7-10.6h4c5.9,0,10.7,4.8,10.7,10.6C150.1,37.3,145.3,42.1,139.3,42.1z"></path>		<path d="M59.4,38.3l0.9,1.9h-9.4l-3.5,7.4h-6.2l11.4-23.9l1.8,3.8c0.8,1.7,0.8,3.7,0,5.5l-0.8,1.6C56,34.7,58.3,36.1,59.4,38.3z   M60.8,15.3h-6.2L70,47.7h6.2L60.8,15.3z"></path>		<path d="M9.1,38.4v9.3H3.5V44C3.5,40.9,6,38.4,9.1,38.4z M9.1,34.3h17.3c0-3.1-2.5-5.6-5.6-5.6H9.1V15.3H3.5v13.4  C3.5,31.8,6,34.3,9.1,34.3z M30.6,15.3v32.3h5.6V15.3H30.6z"></path>		<path d="M177,35.6l19-20.3h-7.7L166.2,39V15.3h-5.6v32.3h5.1l10.7-11.4L187,47.7h7.7l-11.4-12.1H177z"></path>		<path d="M104.4,42.9L86.7,24v23.7H81V15.3h5.2l0.6,0.6l17.6,18.7L104.4,42.9L104.4,42.9z M109.9,47.7h4.3V15.3h-5.6v31  C108.6,47.1,109.2,47.7,109.9,47.7L109.9,47.7z"></path>	</g></svg>