<svg xmlns="http://www.w3.org/2000/svg" xmlns:xlink="http://www.w3.org/1999/xlink" x="0px" y="0px" viewBox="0 0 210 63" style="enable-background:new 0 0 210 63;" xml:space="preserve">	<g>		<path d="M35.4,15.3h5.9v-0.7H25.7v0.7c2,0,3,0.9,3,2.8v14.5H17.7v-9.5c0-5-1.8-7.2-2.8-7.8h5.8v-0.7H5.3v0.7c1.9,0,3,0.9,3,2.8  v25.4c0,6.6,3.1,7.3,3.1,7.3H5.3v0.7h15.4v-0.7c-1.9,0-3-0.9-3-2.9V33.8h10.9v9.7c0,6.6,3.2,7.3,3.2,7.3h-6.1v0.7h15.5v-0.7h-0.1  c-1.9,0-3-0.9-3-2.9V23.1C38.2,18.1,36.4,15.9,35.4,15.3L35.4,15.3z"></path>		<path d="M49.2,51.5h13.4v-0.7c-1.2,0-2.3-0.9-2.3-2.8V30.3c0-5.3-2-6.2-2.8-6.4v0h5.1v-0.7H49.2v0.7c1.3,0,2.3,0.9,2.3,2.9v17.7  c0,6.4,3.1,6.4,3.1,6.4h-5.5V51.5z"></path>		<path d="M53.6,20.2c2.4,0,4.4-1.9,4.4-4.3c0-2.4-2-4.4-4.4-4.4c-2.4,0-4.4,2-4.4,4.4C49.2,18.3,51.2,20.2,53.6,20.2z"></path>		<path d="M80.8,11.5H67.4v0.7c1.2,0,2.3,0.9,2.3,2.9v29.3c0,6.4,3.1,6.4,3.1,6.4h-5.4v0.7h13.4v-0.7c-1.3,0-2.3-0.9-2.3-2.8v-5.7  c0-1.1,0-3.1,0-5.4V18.7c0-5.3-2-6.3-2.7-6.4l-0.1,0h5.1V11.5z"></path>		<path d="M132.8,50.8c-1.3,0-2.3-0.9-2.3-2.8V33.1c0-5.1-1.5-10-7.9-10c-4.2,0-7.7,2.7-9.7,7.7c0,0.1-0.1,0.2-0.1,0.2  c-0.4-4.3-2.3-8-7.9-8c-4.2,0-7.6,2.7-9.6,7.7v-2.4c0-1.7-0.5-5.3-4.2-5.3h-6.9v0.7c1.2,0,2.3,0.9,2.3,2.9v17.7  c0,6.4,3.2,6.4,3.2,6.4h-5.7v0.7h13.6v-0.7c-1.3,0-2.3-0.9-2.3-2.8V33.1c0-2.7,2-5.4,4.3-5.7c3-0.4,4.5,1.6,4.5,5.2v11.8  c0,6.4,3.1,6.4,3.1,6.4h-5.7v0.7h13.6v-0.7c-1.2,0-2.3-0.9-2.3-2.8v-5.7c0-1-0.1-3.1,0-9.2c0-2.7,2-5.4,4.3-5.7  c3-0.4,4.5,1.6,4.5,5.2v11.8c0,6.4,3.1,6.4,3.1,6.4h-5.7v0.7h13.7L132.8,50.8L132.8,50.8z"></path>		<path d="M137.5,51.5h13.4v-0.7c-1.3,0-2.3-0.9-2.3-2.8V30.3c0-5.3-2-6.2-2.8-6.4v0h5.1v-0.7h-13.4v0.7c1.3,0,2.3,0.9,2.3,2.9v17.7  c0,6.4,3.1,6.4,3.1,6.4h-5.5V51.5z"></path>		<path d="M141.9,20.2c2.4,0,4.3-1.9,4.3-4.3c0-2.4-2-4.4-4.3-4.4c-2.4,0-4.4,2-4.4,4.4C137.5,18.3,139.4,20.2,141.9,20.2z"></path>		<path d="M186.5,50.8c-1.3,0-2.3-0.9-2.3-2.8V33.1c0-0.1-0.1-1.5-0.1-2.1c-0.4-4.3-2.3-8-7.8-8c-4.2,0-7.6,2.7-9.6,7.7v-2.4  c0-1.7-0.5-5.3-4.2-5.3h-6.9v0.7c1.3,0,2.3,0.9,2.3,2.9v17.7c0,6.4,3.1,6.4,3.1,6.4h-5.5v0.7H169v-0.7c-1.3,0-2.3-0.9-2.3-2.8v-5.7  c0-1.1,0-3.1,0-9.2c0-2.7,1.9-5.4,4.3-5.7c3-0.4,4.6,1.6,4.6,5.2v11.8c0,6.4,3.1,6.4,3.1,6.4h-5.5v0.7h13.4L186.5,50.8L186.5,50.8z  "></path>		<path d="M200.8,43.6v-18c0-1.2,1.2-1.8,2.7-1.8v-0.7h-2.7V15h-1.1c-2.4,5.6-5.6,8.1-10.2,8.1v0.7c1.4,0,2.6,0.6,2.6,1.8v16.9  c0,5.3,2.2,9,7,9h5.6v-1C202,50.5,200.8,47.4,200.8,43.6z"></path>	</g></svg>