<svg xmlns="http://www.w3.org/2000/svg" xmlns:xlink="http://www.w3.org/1999/xlink" x="0px" y="0px" viewBox="0 0 210 63" style="enable-background:new 0 0 210 63;" xml:space="preserve">	<g>		<path d="M39.2,14.2c-3.9,0-7.5,1.5-10.2,4c-2.7-2.5-6.2-4-10.2-4c-8.4,0-15.4,7-15.4,15.6v10.5c0,2.8,2.4,5.1,5.1,5.1  s5.1-2.3,5.1-5.1V29.8c0-2.8,2.3-5.2,5.1-5.2c2.8,0,5,2.4,5,5.2v10.5c0,2.8,2.3,5.1,5.1,5.1c2.8,0,5.1-2.3,5.1-5.1V29.8  c0-2.8,2.3-5.2,5.1-5.2c2.8,0,5.1,2.4,5.1,5.2v10.5c0,2.8,2.3,5.1,5.1,5.1c2.8,0,5.2-2.3,5.2-5.1V29.8  C54.6,21.2,47.6,14.2,39.2,14.2L39.2,14.2z M29,51.3c-2.8,0-5.1,2.3-5.1,5.2c0,2.9,2.3,5.2,5.1,5.2c2.8,0,5.1-2.3,5.1-5.2  C34.1,53.6,31.8,51.3,29,51.3z"></path>		<path d="M64.2,11.7c2.8,0,5-2.3,5-5.1c0-2.8-2.2-5.2-5-5.2c-2.8,0-5,2.3-5,5.2C59.2,9.4,61.4,11.7,64.2,11.7z M64.2,14.2  c-2.8,0-5,2.3-5,5.1v20.9c0,2.8,2.2,5.1,5,5.1c2.8,0,5-2.3,5-5.1V19.3C69.2,16.5,67,14.2,64.2,14.2L64.2,14.2z"></path>		<path d="M137.8,29.9c-0.1-8.6-7-15.6-15.4-15.6c-8.4,0-15.3,7-15.3,15.6c0,8.6,6.9,15.6,15.3,15.6  C130.8,45.5,137.7,38.5,137.8,29.9z M122.4,35.2c-2.9,0-5.3-2.3-5.3-5.3s2.4-5.4,5.3-5.4c2.9,0,5.4,2.3,5.4,5.4  S125.3,35.2,122.4,35.2z"></path>		<path d="M170.8,15.8c-2-2-5.1-2-7.2,0l-11.9,12.1V6.6c0-2.8-2.2-5.2-5-5.2c-2.8,0-5,2.3-5,5.2v33.7c0,1.4,0.2,2.4,1.5,3.7  c1,0.9,2.3,1.5,3.6,1.5c1.3,0,2.6-0.5,3.6-1.5L170.8,23C172.8,21.1,172.8,17.8,170.8,15.8L170.8,15.8z M167.3,35.2  c-2.8,0-5.1,2.3-5.1,5.2c0,2.9,2.3,5.1,5.1,5.1c2.8,0,5-2.3,5-5.1C172.3,37.5,170,35.2,167.3,35.2z"></path>		<path d="M191.3,45.5c8.4,0,15.3-7,15.3-15.6V19.4c0-2.8-2.3-5.2-5.1-5.2c-2.8,0-5.1,2.3-5.1,5.2v10.5c0,2.8-2.3,5.2-5.1,5.2  c-2.8,0-5.1-2.3-5.1-5.2V19.4c0-2.8-2.3-5.2-5.1-5.2c-2.8,0-5.1,2.3-5.1,5.2v10.5C175.9,38.5,182.8,45.5,191.3,45.5z"></path>		<path d="M88.1,14.2c-1.8,0-3.6,0.3-5.2,0.9V6.6c0-2.8-2.3-5.1-5.1-5.1s-5,2.3-5,5.1V29c0,0.3,0,0.5,0,0.9v10.4  c0,2.9,2.3,5.2,5.1,5.2c2.8,0,5.1-2.3,5.1-5.2V29.9c0-2.9,2.4-5.3,5.1-5.3c2.8,0,5.1,2.4,5.1,5.3v10.4c0,2.9,2.4,5.2,5.2,5.2  c2.8,0,5.1-2.3,5.1-5.2V29.9C103.5,21.2,96.6,14.2,88.1,14.2L88.1,14.2z"></path>	</g></svg>